<?xml version="1.0" standalone="no"?>
<!DOCTYPE svg PUBLIC "-//W3C//DTD SVG 20010904//EN"
 "http://www.w3.org/TR/2001/REC-SVG-20010904/DTD/svg10.dtd">
<svg version="1.0" xmlns="http://www.w3.org/2000/svg"
 width="359.000000pt" height="256.000000pt" viewBox="0 0 359.000000 256.000000"
 preserveAspectRatio="xMidYMid meet">

<g transform="translate(0.000000,256.000000) scale(0.100000,-0.100000)"
fill="#000000" stroke="none">
<path d="M2230 2466 c-31 -11 -36 -18 -40 -54 l-5 -42 -39 24 c-38 23 -41 23
-83 8 l-43 -16 0 -243 0 -242 -52 -16 c-69 -20 -68 -20 -68 20 0 31 4 37 44
56 59 27 67 51 64 184 l-3 109 -60 37 -60 38 -70 -23 -70 -23 -3 -46 c-5 -75
-21 -54 -24 30 l-3 77 -94 59 c-93 58 -95 58 -130 45 l-36 -14 -3 -92 -3 -91
33 13 c33 14 33 15 36 90 2 42 6 76 10 76 4 0 18 -7 30 -16 19 -13 22 -24 22
-90 0 -72 -5 -85 -26 -64 -7 7 -25 4 -57 -10 l-47 -21 0 -84 c0 -47 2 -85 4
-85 1 0 17 5 35 11 l31 11 0 84 c0 86 4 93 39 75 15 -9 17 -21 13 -93 -5 -89
-7 -97 -22 -82 -7 7 -25 4 -55 -10 l-45 -21 0 -94 c0 -92 0 -93 23 -87 12 3
28 6 35 6 9 0 12 27 12 100 0 55 4 100 8 100 5 0 16 -6 25 -12 12 -10 17 -33
18 -103 2 -82 0 -90 -17 -90 -10 -1 -38 -7 -61 -14 l-43 -14 0 -87 0 -87 33 6
32 7 3 87 c3 89 7 96 45 81 15 -5 12 -54 -4 -54 -5 0 -9 -16 -9 -36 0 -29 3
-34 18 -30 9 3 179 46 377 95 l360 90 47 -27 c26 -15 48 -30 48 -34 0 -3 -22
-9 -49 -13 -38 -5 -57 -3 -79 10 -27 16 -33 16 -118 -4 -49 -12 -99 -24 -111
-26 -17 -4 -23 -13 -23 -33 0 -33 -115 -325 -130 -330 -17 -6 -12 9 50 167 63
161 69 181 46 181 -9 0 -26 -34 -46 -87 -70 -195 -94 -253 -104 -249 -15 5
-13 10 50 175 30 79 54 145 52 147 -11 10 -46 -11 -54 -34 -9 -22 -20 -29 -65
-39 -111 -25 -139 -27 -139 -9 0 9 -5 16 -11 16 -5 0 -8 -3 -6 -7 3 -5 17 -47
31 -94 26 -83 28 -86 64 -96 l37 -11 -45 1 -45 2 -32 90 c-37 106 -45 122 -37
78 7 -41 -10 -44 -24 -4 -8 24 -14 28 -36 24 -23 -5 -26 -10 -26 -44 0 -21 4
-40 9 -43 4 -3 6 -16 4 -30 -3 -13 0 -27 6 -30 6 -4 11 -22 11 -40 0 -32 -2
-33 -62 -51 -35 -10 -67 -21 -73 -24 -5 -3 -24 -4 -42 -2 -28 2 -33 -1 -33
-18 0 -12 -4 -21 -10 -21 -5 0 -10 7 -10 15 0 8 -9 15 -20 15 -16 0 -20 -7
-20 -35 0 -19 -4 -35 -10 -35 -5 0 -10 14 -10 30 0 25 -4 30 -25 30 -23 0 -25
-3 -25 -50 0 -27 -4 -50 -10 -50 -5 0 -10 19 -10 43 l0 42 -50 -3 c-29 -2 -50
-9 -50 -15 0 -7 -3 -22 -6 -34 -5 -17 2 -26 30 -45 20 -13 36 -25 36 -28 0 -3
-15 -15 -33 -27 l-32 -23 43 0 c23 0 42 -4 42 -10 0 -5 -20 -26 -45 -47 -48
-39 -61 -85 -29 -97 24 -9 24 -9 24 30 0 25 9 48 31 75 17 21 34 39 38 39 4 0
22 -20 39 -44 l32 -44 0 -237 c0 -155 -3 -234 -10 -230 -6 4 -10 93 -10 234
l0 228 -28 36 -29 36 -21 -29 c-14 -19 -22 -44 -22 -70 0 -22 -4 -40 -10 -40
-6 0 -10 -28 -10 -65 0 -37 4 -65 10 -65 6 0 10 -22 10 -50 0 -52 7 -58 41
-40 13 7 19 7 19 0 0 -5 0 -13 0 -17 0 -5 -14 -8 -30 -8 -38 1 -40 -15 -2 -16
15 -1 30 -1 35 0 16 2 5 -28 -23 -64 -16 -21 -30 -44 -30 -51 0 -8 -4 -14 -9
-14 -5 0 -12 54 -16 120 -6 102 -9 119 -21 109 -19 -15 -18 -74 1 -93 12 -12
15 -45 15 -164 0 -149 0 -150 -25 -166 -32 -21 -32 -50 0 -81 20 -21 34 -25
82 -25 32 0 71 7 87 15 15 8 42 15 58 15 25 0 29 -3 23 -18 -16 -42 -15 -68 4
-100 19 -29 25 -32 71 -32 l50 0 0 -38 c0 -34 4 -40 35 -55 20 -9 54 -17 75
-17 29 0 40 -4 40 -15 0 -12 15 -15 79 -15 44 0 83 -4 86 -10 3 -5 43 -10 88
-10 72 0 84 3 95 21 7 11 10 29 7 40 -6 17 -1 19 43 19 35 0 54 5 66 19 10 10
32 22 49 25 50 9 97 42 97 68 0 12 8 30 17 40 18 20 16 31 -24 135 -4 10 11
13 56 13 l60 0 12 40 c11 38 10 42 -24 99 -50 81 -49 86 20 86 l58 0 0 43 0
43 -58 3 c-46 2 -61 7 -73 24 -8 12 -21 28 -29 36 -21 21 -20 22 30 18 36 -3
50 -11 75 -39 17 -19 34 -32 37 -29 4 4 -8 21 -26 40 -26 27 -31 38 -25 60 6
24 10 26 60 26 l54 0 0 45 c0 41 -3 47 -45 77 -38 28 -44 38 -45 69 0 36 1 37
48 45 l47 9 3 47 c3 46 2 48 -35 63 -59 23 -68 30 -71 58 -3 22 4 28 52 50
l56 26 0 46 0 46 -57 26 c-32 14 -60 28 -62 30 -3 2 14 23 37 46 35 36 42 49
42 83 0 39 -2 41 -65 75 -36 18 -65 37 -65 41 0 3 22 9 48 13 61 8 67 13 67
55 0 27 -6 39 -27 53 l-28 19 0 243 0 243 -55 31 c-30 17 -56 31 -57 30 -2 0
-19 -6 -38 -13z m95 -43 l35 -17 0 -228 c0 -209 -5 -251 -25 -218 -3 6 -19 10
-36 10 l-29 0 0 235 c0 144 4 235 10 235 5 0 25 -8 45 -17z m-695 -125 c0 -61
-2 -69 -17 -66 -15 3 -19 16 -21 67 -4 78 2 98 23 81 11 -9 15 -33 15 -82z
m560 5 c0 -24 -4 -43 -10 -43 -5 0 -10 4 -10 10 0 5 -13 32 -30 60 -16 28 -30
53 -30 56 0 2 18 -6 40 -18 37 -21 40 -26 40 -65z m-522 -12 c2 -48 0 -62 -10
-59 -8 3 -14 27 -16 67 -2 48 0 62 10 59 8 -3 14 -27 16 -67z m42 -27 c0 -48
-3 -65 -12 -62 -8 3 -14 28 -16 66 -2 51 0 62 13 62 12 0 15 -13 15 -66z m274
-22 c4 -7 10 -182 7 -220 -1 -16 -60 -52 -87 -52 -12 0 -32 8 -44 18 l-22 17
36 13 36 13 0 118 c0 65 3 120 6 124 7 7 59 -17 68 -31z m-136 -84 c-2 -50 -6
-63 -20 -66 -16 -3 -18 5 -18 56 0 57 6 68 33 71 4 1 7 -27 5 -61z m-153 30
l45 -23 -3 -169 -2 -170 -47 -12 -48 -12 0 204 c0 112 2 204 5 204 3 0 25 -10
50 -22z m471 -141 l51 -92 -40 -12 c-22 -7 -48 -15 -58 -18 -18 -6 -19 1 -19
104 0 61 3 111 8 111 4 0 30 -42 58 -93z m-308 -87 c26 -16 32 -26 32 -55 0
-29 -5 -37 -26 -45 -50 -19 -54 -15 -54 55 0 36 3 65 8 65 4 0 22 -9 40 -20z
m417 -146 c14 -9 25 -20 25 -25 0 -4 -19 -21 -43 -38 l-43 -29 -11 41 c-10 35
-9 43 5 54 23 17 38 16 67 -3z m118 -84 c26 -16 47 -36 47 -45 0 -21 -10 -19
-64 11 -30 17 -46 32 -46 45 0 26 8 24 63 -11z m-312 -138 c10 -40 20 -108 21
-152 l3 -80 35 -12 c19 -6 31 -13 25 -14 -10 -3 -315 -35 -510 -54 -55 -5
-189 -19 -299 -30 -109 -11 -201 -19 -203 -16 -6 6 169 121 231 153 186 94
323 97 601 14 113 -34 141 -34 38 -1 -114 37 -113 35 -53 186 29 71 54 133 58
139 8 12 30 -42 53 -133z m-226 78 c-3 -11 -17 -46 -30 -77 -22 -56 -24 -58
-60 -58 -37 0 -38 1 -55 57 l-18 58 37 10 c43 11 113 28 124 29 5 1 6 -8 2
-19z m532 -2 c21 -12 40 -23 42 -25 6 -5 -61 -73 -72 -73 -4 0 -29 12 -53 26
l-45 27 32 33 c39 40 46 41 96 12z m-749 -50 c-7 -20 -48 -23 -48 -4 0 11 9
16 26 16 16 0 24 -5 22 -12z m664 -47 l51 -29 -46 -7 c-26 -4 -50 -7 -53 -6
-7 1 -14 71 -7 71 2 0 27 -13 55 -29z m-652 3 c0 -8 4 -13 9 -10 5 3 16 -14
24 -39 20 -56 3 -72 -19 -18 -19 44 -29 53 -66 53 -18 0 -28 5 -28 15 0 11 11
15 40 15 30 0 40 -4 40 -16z m-26 -30 c17 -7 23 -64 7 -64 -5 0 -16 -2 -24 -5
-11 -5 -13 2 -11 32 2 21 3 39 3 41 1 3 8 2 25 -4z m827 -54 c11 -6 19 -21 19
-36 0 -22 -3 -24 -22 -18 -64 19 -96 53 -72 77 6 6 39 -4 75 -23z m-23 -68
l33 -18 -36 -17 c-20 -9 -42 -17 -50 -17 -8 0 -30 8 -50 17 l-36 17 33 18 c18
9 42 17 53 17 11 0 35 -8 53 -17z m-60 -96 c3 -25 2 -26 -50 -26 l-53 0 2 42
c1 24 2 44 2 45 1 0 22 -7 49 -17 37 -14 48 -23 50 -44z m-185 -82 l37 -66 0
-217 0 -216 47 -32 c49 -34 47 -39 -17 -46 -33 -4 -33 -4 7 -5 40 -2 45 -5 78
-57 19 -31 35 -58 35 -60 0 -8 -84 -5 -97 3 -7 4 -21 28 -32 52 l-20 45 0 -66
c-1 -74 -5 -79 -71 -79 l-39 0 17 30 c20 35 28 37 42 10 6 -11 15 -20 20 -20
6 0 10 123 10 324 l0 324 -32 56 c-18 31 -35 56 -38 56 -3 0 -20 -27 -38 -60
-19 -33 -38 -60 -43 -60 -12 0 -11 7 2 33 9 18 9 20 -2 10 -8 -8 -41 -13 -83
-13 -99 0 -111 -5 -124 -48 -11 -34 -5 -56 73 -286 47 -137 83 -252 80 -255
-11 -10 -23 17 -69 149 -26 74 -61 171 -77 216 -16 44 -29 86 -29 93 0 7 -8 3
-18 -9 -15 -19 -20 -20 -30 -8 -9 11 -7 24 10 57 13 28 23 70 26 117 4 64 7
74 23 74 16 0 19 -8 19 -41 l0 -42 77 7 c42 3 91 6 110 6 30 0 36 5 55 45 12
25 29 45 37 45 9 0 33 -30 54 -66z m-543 11 c0 -23 -26 -29 -63 -14 l-32 14
30 6 c51 11 65 10 65 -6z m793 -1 c42 -14 46 -18 44 -45 -2 -25 -5 -29 -24
-24 -61 15 -73 24 -73 55 0 16 1 30 3 30 2 0 24 -7 50 -16z m-806 -34 c32 0
63 -21 63 -44 0 -18 -21 -36 -42 -36 -10 0 -18 -4 -18 -10 0 -5 -8 -10 -19
-10 -13 0 -20 9 -23 30 -4 27 -2 30 24 30 17 0 27 4 23 10 -3 6 -29 10 -56 10
-55 0 -89 13 -89 35 0 21 41 23 75 3 17 -10 44 -18 62 -18z m-287 -16 l0 -35
55 5 c179 19 171 19 155 2 -12 -12 -44 -18 -114 -23 l-99 -6 7 -101 c9 -137
79 -406 105 -406 4 0 13 11 19 25 6 14 16 25 22 25 6 0 -4 15 -23 33 -18 19
-41 50 -50 69 -20 41 -22 133 -6 175 7 15 11 56 10 89 l-2 62 46 7 c26 3 49 4
52 1 3 -3 14 6 25 19 27 35 42 32 35 -8 -5 -32 -5 -33 30 -29 51 6 116 -23
162 -73 48 -52 54 -75 12 -46 -33 24 -122 64 -128 58 -2 -3 15 -12 39 -21 60
-24 114 -61 135 -93 10 -15 21 -57 24 -93 4 -36 21 -102 38 -148 17 -46 31
-99 31 -119 0 -36 -31 -88 -45 -75 -5 4 -5 2 -1 -5 23 -40 -125 -45 -202 -7
-64 32 -92 69 -92 123 0 38 2 41 29 41 57 0 162 53 176 88 4 11 -4 7 -22 -9
-64 -60 -152 -82 -217 -55 -22 9 -40 15 -41 14 0 -2 -9 -16 -19 -31 -18 -30
-18 -68 0 -74 6 -2 19 14 28 37 9 22 20 40 26 40 14 0 13 -4 -11 -61 l-22 -50
34 -35 c116 -121 256 -129 362 -21 28 28 45 42 39 31 -17 -33 -98 -102 -138
-119 -20 -8 -63 -15 -96 -15 -213 0 -382 291 -404 698 -7 128 -4 152 21 152
11 0 15 -10 15 -36z m780 11 c0 -8 -7 -15 -15 -15 -9 0 -12 6 -9 15 4 8 10 15
15 15 5 0 9 -7 9 -15z m290 -40 l35 -13 -50 -1 c-27 0 -61 2 -75 6 -24 7 -23
8 10 14 19 3 37 7 40 7 3 0 21 -6 40 -13z m-370 -230 c0 -137 4 -215 10 -215
6 0 10 -65 10 -175 0 -110 -4 -175 -10 -175 -6 0 -10 58 -10 153 0 84 -4 157
-9 163 -5 5 -29 72 -54 149 l-46 140 19 55 c11 30 19 67 20 82 0 28 10 36 48
37 l22 1 0 -215z m77 126 c-9 -137 -44 -313 -59 -291 -2 3 -2 89 0 193 l4 187
30 0 31 0 -6 -89z m214 79 c32 -9 37 -15 41 -45 4 -38 -5 -42 -71 -29 -28 6
-31 10 -31 45 0 43 4 45 61 29z m-401 -13 c0 -8 -6 -35 -14 -62 l-15 -47 64
-184 c35 -105 59 -187 53 -190 -13 -8 -11 -11 -46 91 -16 50 -46 137 -66 193
l-36 104 17 54 c9 30 23 54 30 54 7 0 13 -6 13 -13z m485 -107 l30 -20 -33 0
c-31 0 -112 33 -112 46 0 13 85 -7 115 -26z m-1229 2 c22 -14 26 -50 8 -76
-23 -35 -34 -24 -34 35 0 48 4 56 26 41z m1245 -42 c26 0 29 -4 29 -30 0 -28
-2 -30 -37 -30 -52 0 -67 12 -59 45 5 19 11 25 22 21 9 -3 29 -6 45 -6z m-119
-57 c24 -9 44 -17 46 -18 1 -1 -2 -13 -7 -26 -8 -22 -13 -24 -60 -20 -41 2
-51 6 -47 18 3 8 6 26 6 39 0 28 6 29 62 7z m89 -183 c15 0 19 -7 19 -31 0
-28 -3 -31 -22 -25 -13 3 -35 6 -50 6 -25 0 -28 4 -28 31 0 30 2 31 31 25 17
-3 40 -6 50 -6z m-1131 -125 c0 -18 -5 -25 -20 -25 -24 0 -25 8 -3 32 21 23
23 23 23 -7z m-85 -15 c6 -27 10 -30 46 -30 32 0 39 -3 39 -20 0 -11 5 -20 10
-20 6 0 10 -16 10 -35 0 -19 -4 -35 -10 -35 -5 0 -10 12 -10 26 0 14 -4 23
-10 19 -5 -3 -7 -12 -3 -20 4 -12 -5 -15 -46 -15 l-51 0 0 80 c0 80 13 106 25
50z m115 0 c0 -5 -4 -10 -10 -10 -5 0 -10 5 -10 10 0 6 5 10 10 10 6 0 10 -4
10 -10z m0 -40 c0 -5 -5 -10 -11 -10 -5 0 -7 5 -4 10 3 6 8 10 11 10 2 0 4 -4
4 -10z m1070 -56 c0 -3 -5 -14 -10 -25 -8 -14 -21 -19 -54 -19 -49 0 -56 4
-49 31 4 16 14 19 59 19 30 0 54 -3 54 -6z m-986 -59 c22 -33 13 -45 -33 -45
-22 0 -44 -6 -51 -15 -31 -37 -158 -25 -181 18 -10 17 -8 24 12 40 20 16 36
18 93 15 58 -3 71 -8 89 -28 18 -23 19 -24 13 -3 -5 15 -2 25 11 32 26 15 29
14 47 -14z m815 -55 c-1 -73 -3 -79 -20 -70 -39 21 -131 5 -143 -25 -17 -45
91 -73 155 -39 25 13 30 20 25 40 -7 27 5 32 24 10 20 -26 8 -60 -30 -78 -67
-34 -185 -15 -211 33 -22 42 78 96 152 83 20 -3 29 -2 22 3 -9 7 -53 104 -53
118 0 3 18 5 40 5 l41 0 -2 -80z m46 28 c20 -67 19 -68 -10 -68 -24 0 -25 3
-25 60 0 33 4 60 10 60 5 0 16 -23 25 -52z m-205 -77 c0 -5 -7 -12 -16 -15
-24 -9 -28 -7 -14 9 14 17 30 20 30 6z m-552 -21 c15 -12 22 -28 20 -42 -2
-19 -10 -24 -45 -26 -24 -2 -43 -1 -43 2 0 11 35 86 40 86 3 -1 15 -9 28 -20z
m772 0 c0 -5 -4 -10 -10 -10 -5 0 -10 5 -10 10 0 6 5 10 10 10 6 0 10 -4 10
-10z m-75 -14 c31 -23 3 -46 -55 -46 -86 0 -115 29 -32 32 l47 1 -45 4 c-31 3
-40 7 -30 14 23 13 94 11 115 -5z m-242 -46 c4 -17 0 -20 -29 -20 -39 0 -44
12 -11 28 31 15 34 14 40 -8z m-329 -20 c22 -8 26 -16 26 -49 0 -43 -8 -49
-52 -43 -19 3 -27 9 -24 18 3 7 8 29 12 48 3 20 8 36 9 36 2 0 15 -4 29 -10z
m180 -57 c11 -72 11 -73 -42 -73 l-49 0 10 55 c10 53 11 55 42 55 30 0 33 -3
39 -37z m168 15 c23 -35 30 -78 17 -94 -7 -9 -31 -14 -61 -14 -42 0 -49 3 -44
16 3 9 6 38 6 65 l0 49 34 0 c24 0 38 -6 48 -22z m148 -8 c3 0 -2 -5 -10 -10
-8 -5 -33 -10 -54 -10 -39 0 -39 0 -20 18 15 15 26 17 49 10 16 -4 32 -8 35
-8z"/>
<path d="M1530 1431 c-89 -29 -325 -158 -295 -162 6 0 -1 -5 -15 -9 -20 -7
-16 -8 23 -9 46 -1 47 0 47 29 0 17 5 30 10 30 6 0 10 -12 10 -26 l0 -27 73 7
c167 16 185 31 80 67 -34 13 -63 27 -63 32 0 5 6 7 13 4 6 -2 18 3 25 12 11
14 12 14 10 -4 -3 -16 8 -25 51 -42 30 -13 56 -21 58 -19 3 2 -5 7 -16 11 -17
5 -21 15 -21 50 0 36 4 44 23 49 36 10 42 7 43 -19 1 -14 -2 -22 -7 -19 -5 3
-6 -2 -3 -10 10 -25 24 -8 24 30 0 28 4 34 21 34 18 0 21 -5 17 -35 -2 -19 -3
-35 -1 -35 1 0 9 16 17 35 13 31 19 35 50 35 40 0 86 -18 86 -34 0 -6 5 -5 12
2 7 7 18 12 26 12 9 0 6 -7 -9 -20 -13 -10 -19 -19 -12 -20 6 0 16 -13 22 -30
9 -28 8 -30 -15 -30 -13 0 -24 6 -24 13 0 6 -4 18 -9 26 -7 11 -21 6 -70 -24
-34 -21 -64 -36 -66 -33 -3 3 26 24 65 48 38 23 70 44 70 47 0 2 -5 1 -10 -2
-6 -3 -22 3 -36 14 -15 12 -31 21 -35 21 -5 0 -24 -30 -42 -66 -31 -62 -33
-65 -62 -60 -25 5 -27 4 -12 -5 14 -8 66 -7 195 6 98 9 182 18 188 20 9 2 9
13 1 38 -13 39 -23 44 -159 71 -101 21 -209 19 -278 -3z m377 -33 c6 -7 13
-25 15 -40 4 -21 1 -28 -11 -28 -11 0 -21 14 -28 40 -8 31 -7 40 2 40 7 0 17
-6 22 -12z m-537 -88 c0 -22 -4 -40 -10 -40 -11 0 -14 63 -3 73 11 12 13 8 13
-33z m80 -5 c0 -14 -4 -25 -10 -25 -5 0 -10 11 -10 25 0 14 5 25 10 25 6 0 10
-11 10 -25z"/>
<path d="M2005 1375 c17 -8 37 -14 45 -14 8 0 -1 7 -20 14 -46 18 -64 17 -25
0z"/>
<path d="M2076 1349 c3 -5 -14 -10 -38 -11 -40 -1 -41 -2 -8 -5 20 -2 46 0 60
5 23 9 23 9 2 14 -12 4 -20 2 -16 -3z"/>
<path d="M1540 1290 c0 -5 10 -10 23 -10 18 0 19 2 7 10 -19 13 -30 13 -30 0z"/>
<path d="M1475 1066 c-32 -31 -33 -33 -7 -12 41 32 48 32 56 1 3 -13 19 -34
35 -46 l28 -21 -21 -38 c-23 -44 -51 -57 -66 -32 -9 16 -9 16 -10 0 0 -21 -16
-24 -23 -5 -3 7 -6 5 -6 -5 -1 -10 -7 -18 -15 -18 -8 0 -17 -4 -21 -9 -3 -6 7
-6 27 0 18 5 34 9 35 9 2 0 3 -9 3 -20 0 -20 -15 -28 -22 -12 -1 5 -14 5 -28
2 l-25 -7 30 -7 c56 -14 75 -28 75 -56 0 -14 -5 -31 -12 -38 -9 -9 -8 -12 4
-12 9 0 20 -5 24 -12 5 -8 2 -9 -12 -4 -10 5 -28 11 -38 14 -28 8 -11 -15 26
-34 29 -15 31 -15 46 8 9 13 17 26 17 30 0 3 3 10 8 14 4 4 7 -2 7 -14 0 -11
-4 -24 -10 -27 -5 -3 -10 -13 -10 -21 0 -21 76 -18 126 5 22 10 50 31 62 46
31 39 27 53 -4 15 -15 -17 -39 -37 -55 -46 -30 -15 -99 -16 -99 -2 0 13 39 48
54 48 20 0 45 32 29 37 -15 5 -17 33 -3 33 6 0 10 -6 10 -12 0 -9 3 -9 9 1 5
8 18 12 29 8 12 -2 22 -2 24 3 2 4 16 10 32 14 l29 7 -6 -42 c-4 -28 -2 -38 4
-28 12 20 11 73 -3 104 -15 32 -88 79 -169 108 -83 29 -88 33 -108 76 l-16 36
-40 -39z m193 -123 c-5 -25 -28 -28 -28 -4 0 12 6 21 16 21 9 0 14 -7 12 -17z
m75 -20 c19 -9 27 -18 19 -21 -22 -7 -62 8 -62 23 0 19 4 19 43 -2z m-205 -50
c-2 -17 -9 -28 -18 -28 -19 0 -26 35 -8 46 23 15 29 10 26 -18z m172 -3 c0
-18 -5 -30 -13 -30 -9 0 -12 10 -9 30 2 17 8 30 13 30 5 0 9 -13 9 -30z m-50
13 c0 -14 -19 -38 -25 -32 -8 8 5 39 16 39 5 0 9 -3 9 -7z m139 -7 c9 -11 8
-15 -5 -20 -26 -10 -34 -7 -35 12 0 16 -1 16 -8 -1 -10 -26 -24 -26 -26 1 -1
19 3 22 30 22 18 0 38 -6 44 -14z m-163 -75 c-12 -19 -24 -12 -19 10 4 13 9
17 15 11 6 -6 7 -15 4 -21z"/>
<path d="M1580 1081 c0 -8 50 -34 56 -29 1 2 -11 11 -27 20 -16 9 -29 14 -29
9z"/>
<path d="M1634 728 l-19 -23 23 19 c21 18 27 26 19 26 -2 0 -12 -10 -23 -22z"/>
<path d="M1602 610 c0 -14 2 -19 5 -12 2 6 2 18 0 25 -3 6 -5 1 -5 -13z"/>
<path d="M1625 541 c30 -33 83 -66 92 -58 2 3 -5 8 -17 12 -12 4 -41 23 -64
43 -41 36 -41 36 -11 3z"/>
<path d="M1758 473 c18 -2 45 -2 60 0 15 2 0 4 -33 4 -33 0 -45 -2 -27 -4z"/>
<path d="M1153 453 c-20 -7 -15 -31 8 -44 25 -13 105 -7 122 10 8 8 8 14 -1
23 -9 9 -12 8 -12 -4 0 -20 -47 -32 -86 -21 l-29 7 35 7 35 6 -35 3 -35 2 30
8 c27 7 28 8 5 8 -14 0 -31 -2 -37 -5z"/>
<path d="M1228 453 c6 -2 18 -2 25 0 6 3 1 5 -13 5 -14 0 -19 -2 -12 -5z"/>
<path d="M1398 2404 c-27 -14 -28 -17 -28 -99 l0 -84 30 10 30 11 0 89 c0 49
-1 89 -2 89 -2 -1 -15 -8 -30 -16z"/>
<path d="M1328 2369 c-15 -8 -18 -24 -18 -89 0 -44 3 -80 8 -80 27 1 33 20 30
98 -3 73 -5 80 -20 71z"/>
<path d="M1263 2338 c-21 -10 -23 -18 -23 -89 l0 -79 25 12 c24 11 25 16 25
90 0 43 -1 78 -2 77 -2 0 -13 -5 -25 -11z"/>
<path d="M1393 2210 c-21 -9 -23 -16 -23 -94 l0 -85 30 10 30 11 0 84 c0 46
-3 84 -7 83 -5 0 -18 -4 -30 -9z"/>
<path d="M1323 2183 c-9 -3 -13 -31 -13 -90 0 -74 2 -84 16 -79 9 3 18 6 20 6
2 0 4 38 4 85 0 47 -3 85 -7 84 -5 0 -14 -3 -20 -6z"/>
<path d="M1258 2159 c-15 -8 -18 -24 -18 -89 0 -79 3 -86 34 -74 13 5 16 23
16 90 0 46 -3 84 -7 84 -5 0 -16 -5 -25 -11z"/>
<path d="M1393 2018 c-21 -10 -23 -18 -23 -100 0 -48 3 -88 8 -88 4 0 17 3 30
6 21 6 22 11 22 100 0 52 -3 94 -7 93 -5 0 -18 -5 -30 -11z"/>
<path d="M1323 1993 c-9 -3 -13 -31 -13 -89 0 -77 2 -84 20 -84 19 0 20 7 20
90 0 50 -3 90 -7 89 -5 0 -14 -3 -20 -6z"/>
<path d="M1258 1973 c-15 -4 -18 -17 -18 -89 0 -46 4 -84 9 -84 36 0 41 12 41
96 0 46 -3 83 -7 83 -5 -1 -16 -3 -25 -6z"/>
<path d="M1388 1813 c-15 -4 -18 -17 -18 -90 0 -84 0 -85 23 -79 12 3 25 6 30
6 4 0 7 38 7 85 0 87 -1 89 -42 78z"/>
<path d="M1310 1714 c0 -76 2 -85 18 -82 14 3 17 16 20 86 3 77 2 82 -18 82
-19 0 -20 -6 -20 -86z"/>
<path d="M1205 1760 c-6 -29 -1 -50 13 -50 4 0 7 18 7 40 0 47 -11 53 -20 10z"/>
<path d="M1258 1783 c-15 -4 -18 -17 -18 -84 0 -78 0 -79 25 -79 25 0 25 1 25
85 0 47 -3 84 -7 84 -5 -1 -16 -3 -25 -6z"/>
<path d="M1478 1643 l-28 -4 0 -90 c0 -81 2 -89 19 -89 47 0 51 8 51 101 0 49
-3 88 -7 88 -5 -1 -20 -4 -35 -6z"/>
<path d="M1383 1623 c-9 -3 -13 -31 -13 -89 l0 -84 30 0 30 0 0 90 c0 94 -4
101 -47 83z"/>
<path d="M1328 1613 c-15 -4 -18 -17 -18 -89 0 -77 2 -84 20 -84 19 0 20 7 20
90 0 50 -1 89 -2 89 -2 -1 -11 -3 -20 -6z"/>
<path d="M1155 1569 c-6 -27 -2 -36 29 -68 l36 -36 0 62 c0 54 -2 61 -22 67
-35 9 -36 8 -43 -25z"/>
<path d="M1240 1515 c0 -84 0 -85 25 -85 25 0 25 1 25 85 0 84 0 85 -25 85
-25 0 -25 -1 -25 -85z"/>
</g>
</svg>
