<?xml version="1.0" standalone="no"?>
<!DOCTYPE svg PUBLIC "-//W3C//DTD SVG 20010904//EN"
 "http://www.w3.org/TR/2001/REC-SVG-20010904/DTD/svg10.dtd">
<svg version="1.0" xmlns="http://www.w3.org/2000/svg"
 width="1587.000000pt" height="2000.000000pt" viewBox="0 0 1587.000000 2000.000000"
 preserveAspectRatio="xMidYMid meet">

<g transform="translate(0.000000,2000.000000) scale(0.100000,-0.100000)"
fill="#000000" stroke="none">
<path d="M6920 19991 l-775 -6 -50 -25 c-55 -28 -73 -58 -61 -106 11 -44 112
-136 191 -175 l70 -34 868 -3 c776 -2 872 -1 902 13 45 22 162 145 171 180 25
100 -99 149 -401 158 -77 2 -489 1 -915 -2z"/>
<path d="M4610 19904 c-8 -2 -86 -8 -174 -13 -180 -11 -201 -19 -212 -78 -10
-52 6 -134 82 -438 125 -500 170 -628 255 -717 81 -85 170 -22 193 137 4 28
25 131 46 230 21 99 41 212 45 250 4 39 20 133 36 210 17 77 33 183 36 236 l6
96 -72 47 c-70 45 -73 46 -149 45 -42 -1 -84 -3 -92 -5z"/>
<path d="M5420 19849 c-56 -23 -79 -60 -140 -227 -48 -133 -98 -300 -139 -462
-17 -69 -43 -163 -57 -210 -35 -116 -154 -600 -194 -790 -36 -168 -43 -288
-21 -352 17 -51 69 -94 138 -113 216 -63 367 -113 426 -142 122 -61 168 -75
214 -68 82 12 135 84 147 201 7 60 23 160 52 314 16 89 43 306 69 570 8 85 22
216 30 290 9 74 15 210 15 301 0 92 5 213 10 269 18 167 -10 244 -102 291 -21
11 -87 38 -146 60 -214 81 -249 89 -302 68z m255 -137 c169 -71 186 -82 207
-129 18 -40 18 -54 8 -215 -6 -95 -18 -227 -26 -293 -24 -201 -54 -483 -64
-610 -6 -66 -17 -163 -25 -215 -8 -52 -19 -168 -25 -256 -15 -215 -53 -396
-90 -419 -18 -11 -119 24 -229 80 -101 50 -220 92 -376 131 -111 28 -132 63
-100 168 8 27 15 71 15 97 0 26 20 146 44 266 112 546 169 771 247 964 21 53
56 156 77 230 41 142 61 189 96 227 32 36 114 27 241 -26z"/>
<path d="M3640 19843 c-89 -15 -245 -78 -355 -144 -82 -49 -84 -52 -101 -107
-18 -62 -16 -99 36 -597 10 -99 28 -274 40 -390 85 -852 94 -921 134 -999 58
-114 131 -146 232 -103 220 93 311 127 399 152 192 52 229 66 258 96 24 26 27
37 27 94 0 36 -20 184 -45 328 -54 319 -74 412 -136 632 -15 55 -46 170 -68
255 -22 85 -50 182 -61 215 -12 33 -27 92 -35 130 -13 67 -74 235 -115 315
-11 21 -44 59 -73 84 -54 46 -69 50 -137 39z m116 -141 c32 -37 42 -57 47 -98
3 -27 24 -99 47 -159 23 -61 48 -146 55 -190 7 -44 34 -154 60 -245 182 -648
255 -972 255 -1135 l0 -55 -57 -26 c-32 -14 -107 -38 -168 -54 -127 -34 -175
-52 -300 -111 -70 -33 -102 -43 -145 -43 l-55 -1 -22 83 c-12 45 -33 171 -47
280 -37 281 -43 322 -65 467 -21 135 -27 204 -66 800 -18 279 -21 363 -12 374
7 8 36 25 66 38 29 13 68 35 85 48 17 13 54 29 81 36 28 6 70 18 95 24 82 23
101 19 146 -33z"/>
<path d="M6290 19492 c-23 -12 -43 -35 -60 -68 -24 -48 -25 -57 -32 -324 -3
-151 -9 -365 -13 -475 -5 -156 -3 -205 7 -225 20 -36 76 -70 116 -70 48 0 100
56 151 163 148 311 365 735 382 750 20 16 75 17 833 17 903 0 833 -6 881 70
13 21 31 54 39 74 l15 37 -54 34 -54 35 -1088 0 c-1033 0 -1090 -1 -1123 -18z"/>
<path d="M8199 19130 l-866 -5 -49 -30 c-44 -27 -49 -35 -52 -70 -3 -38 0 -42
102 -142 58 -56 130 -120 161 -143 30 -22 73 -65 96 -96 22 -30 55 -64 72 -75
81 -49 57 -48 1170 -49 l1042 -1 75 38 75 38 3 52 c5 87 -11 126 -76 180 -31
26 -102 92 -158 146 -135 128 -167 143 -344 157 -74 5 -191 9 -260 8 -69 -2
-515 -5 -991 -8z"/>
<path d="M2643 18945 c-147 -32 -160 -67 -93 -240 56 -141 173 -326 327 -513
104 -127 125 -134 214 -68 l47 35 -10 48 c-5 26 -13 129 -18 228 -5 119 -15
211 -29 270 -38 167 -30 154 -131 208 -85 45 -93 47 -167 46 -43 0 -106 -7
-140 -14z"/>
<path d="M2075 18822 c-58 -28 -327 -307 -399 -415 -32 -48 -64 -87 -72 -87
-10 0 -14 -16 -15 -62 -1 -35 0 -72 1 -83 4 -42 155 -466 207 -578 30 -65 97
-220 150 -345 105 -251 124 -291 237 -504 128 -240 192 -281 321 -208 59 34
105 81 211 215 43 55 156 182 251 282 186 195 185 195 158 272 -25 73 -45 109
-265 496 -254 445 -354 611 -448 743 -38 54 -90 128 -116 165 -76 109 -146
144 -221 109z m226 -254 c48 -67 132 -205 188 -306 55 -100 134 -235 174 -300
173 -275 345 -587 367 -661 5 -18 6 -46 3 -62 -7 -36 -148 -187 -283 -304 -53
-46 -116 -114 -150 -160 -70 -97 -151 -175 -181 -175 -52 0 -98 74 -277 442
-95 195 -192 409 -216 474 -53 145 -118 311 -195 504 -79 196 -80 198 -39 247
18 22 55 78 82 124 42 72 68 101 182 203 73 66 143 125 156 132 42 23 92 -19
189 -158z"/>
<path d="M6985 18821 c-51 -23 -55 -28 -167 -196 -52 -77 -155 -230 -230 -340
-151 -223 -233 -358 -393 -644 -137 -246 -154 -287 -155 -372 0 -82 21 -115
136 -211 104 -87 160 -147 281 -298 154 -193 220 -250 289 -250 27 0 106 44
153 84 24 21 86 145 289 576 109 232 412 1004 412 1049 0 56 -62 143 -265 372
-128 145 -166 182 -220 214 -58 34 -84 38 -130 16z m116 -108 c17 -10 60 -54
97 -98 36 -44 115 -135 174 -202 167 -190 169 -173 -75 -748 -124 -294 -273
-626 -371 -826 -107 -221 -140 -254 -215 -214 -38 19 -142 133 -237 258 -105
139 -116 150 -217 219 -99 69 -137 108 -137 145 0 63 341 674 601 1078 46 72
116 179 154 239 91 143 113 166 160 166 20 0 50 -8 66 -17z"/>
<path d="M8030 18386 c-106 -23 -182 -82 -231 -178 -20 -40 -83 -220 -265
-768 -42 -124 -86 -269 -99 -324 -28 -114 -26 -123 47 -193 43 -42 43 -42 93
-32 74 14 144 52 216 117 95 87 464 399 536 454 35 26 78 51 96 56 20 6 317 7
738 4 694 -5 705 -5 744 15 77 40 85 55 220 453 34 102 66 204 69 226 l7 41
-103 71 -103 72 -955 -1 c-714 0 -969 -4 -1010 -13z"/>
<path d="M4561 17439 c-97 -11 -250 -53 -315 -85 -108 -54 -162 -137 -133
-207 29 -67 25 -67 599 -67 484 0 515 1 544 19 89 54 81 203 -14 265 -102 68
-433 104 -681 75z"/>
<path d="M9155 17401 c-470 -6 -470 -6 -502 -29 -36 -26 -53 -71 -53 -143 0
-53 18 -101 65 -175 50 -77 158 -297 196 -399 41 -110 83 -156 161 -180 47
-14 166 -16 1098 -15 575 0 1074 5 1109 10 89 12 121 43 121 117 0 41 -8 69
-35 123 -19 38 -48 102 -64 142 -37 93 -187 383 -227 441 -61 86 -113 95 -599
107 -379 9 -510 9 -1270 1z"/>
<path d="M1580 17113 c-50 -8 -131 -46 -150 -71 -11 -13 -20 -40 -20 -59 0
-27 10 -43 53 -86 70 -69 233 -195 298 -229 95 -51 183 -32 209 46 9 27 7 51
-9 124 -48 218 -119 285 -299 281 -31 -1 -68 -4 -82 -6z"/>
<path d="M8195 16955 c-125 -48 -658 -390 -862 -555 -179 -145 -322 -274 -333
-299 -7 -18 -11 -57 -8 -94 3 -53 15 -87 75 -212 78 -164 203 -455 203 -474 0
-26 63 -172 91 -211 42 -57 104 -84 177 -77 62 7 57 4 193 122 152 132 292
273 564 570 179 195 214 235 274 314 82 107 91 129 91 208 0 56 -5 78 -29 123
-16 30 -48 109 -71 175 -68 193 -128 321 -174 372 -39 43 -46 46 -96 49 -33 2
-71 -2 -95 -11z m110 -99 c42 -18 43 -20 165 -323 113 -282 119 -312 73 -380
-16 -22 -204 -233 -420 -469 -445 -486 -517 -553 -606 -554 -62 0 -96 42 -150
190 -115 315 -154 414 -212 540 -34 74 -65 147 -69 162 -11 49 15 90 90 140
38 25 125 89 194 142 280 217 322 248 407 305 71 48 279 169 423 247 32 18 62
18 105 0z"/>
<path d="M810 16934 c-57 -48 -257 -480 -281 -606 -32 -168 -28 -191 36 -258
23 -25 72 -84 107 -131 121 -161 475 -550 594 -651 48 -40 121 -104 163 -141
99 -89 134 -107 212 -107 69 0 131 24 165 63 11 12 51 105 88 207 37 102 77
210 89 240 11 30 55 132 98 225 108 236 116 284 57 367 -29 42 -287 260 -385
325 -48 33 -140 97 -203 142 -136 99 -310 203 -473 285 -93 47 -131 61 -176
64 -51 4 -60 1 -91 -24z m235 -113 c100 -47 210 -118 435 -279 296 -212 533
-400 579 -458 39 -49 31 -79 -89 -344 -65 -145 -114 -268 -152 -390 -37 -116
-51 -145 -91 -187 -27 -29 -38 -33 -80 -33 -45 0 -53 4 -105 53 -31 30 -91 80
-132 113 -98 77 -315 294 -418 420 -45 54 -132 153 -194 219 -61 66 -131 147
-156 180 -43 58 -44 62 -39 115 8 82 193 565 234 612 33 38 98 31 208 -21z"/>
<path d="M3307 16773 c-189 -187 -334 -347 -394 -436 -44 -63 -48 -74 -48
-127 0 -69 21 -105 81 -135 38 -20 59 -20 1014 -20 l975 0 44 25 c35 20 62 50
125 145 61 91 120 160 243 286 98 100 164 176 169 193 9 38 -2 124 -21 152 -8
13 -27 32 -42 41 -25 17 -91 18 -1012 21 l-984 2 -150 -147z"/>
<path d="M9268 16324 c-155 -28 -251 -88 -423 -265 -66 -68 -217 -236 -334
-374 -118 -137 -263 -298 -323 -357 -115 -113 -138 -150 -138 -221 0 -104 91
-138 275 -103 39 7 171 34 295 60 365 76 419 85 549 96 69 6 127 13 131 15 13
8 342 44 430 47 52 2 190 -1 305 -5 180 -8 220 -6 282 8 132 30 241 116 376
295 40 52 119 147 176 210 203 225 281 350 281 448 0 65 -11 86 -53 109 -29
16 -69 17 -422 15 -233 -2 -414 1 -450 7 -33 6 -201 13 -375 16 -173 3 -358 7
-410 9 -57 3 -126 -1 -172 -10z"/>
<path d="M2938 15890 l-307 -5 -30 -29 c-16 -15 -35 -42 -42 -60 -7 -17 -51
-112 -97 -211 -158 -338 -301 -709 -309 -800 -8 -100 -18 -97 273 -106 316
-10 1459 -10 1707 0 186 7 187 8 216 35 31 30 98 177 156 346 60 171 141 365
222 528 85 170 99 230 67 270 -18 21 -30 23 -209 32 -192 10 -1085 10 -1647 0z"/>
<path d="M9454 15061 c-60 -27 -74 -53 -74 -136 0 -86 18 -199 60 -370 21 -88
34 -174 40 -265 12 -177 28 -303 46 -368 12 -42 23 -58 56 -82 92 -67 44 -65
1168 -61 647 1 1038 6 1078 13 77 13 117 43 133 101 17 63 -5 406 -37 582 -33
181 -92 420 -114 465 -33 65 -80 92 -208 120 -83 19 -138 20 -1097 20 -965 0
-1012 -1 -1051 -19z"/>
<path d="M215 14741 c-78 -36 -135 -131 -135 -226 0 -33 -9 -116 -20 -185 -11
-69 -20 -152 -20 -185 0 -33 -9 -127 -20 -210 -30 -223 -20 -254 106 -327 168
-97 324 -169 623 -288 316 -126 506 -190 562 -190 76 0 154 50 191 124 17 33
22 69 29 201 4 88 13 219 19 290 5 72 13 164 16 205 8 108 31 281 50 382 22
116 14 166 -34 217 -23 24 -53 43 -77 50 -120 32 -683 117 -835 126 -58 4
-151 13 -208 21 -136 19 -198 17 -247 -5z m351 -101 c60 -11 138 -20 174 -20
36 0 115 -7 175 -15 61 -8 199 -25 307 -39 210 -27 257 -42 297 -92 12 -15 24
-37 27 -50 5 -21 -17 -165 -71 -459 -14 -77 -26 -191 -30 -280 -3 -82 -10
-204 -16 -270 -10 -111 -13 -122 -37 -142 -58 -49 -86 -45 -408 63 -266 88
-446 158 -654 253 -170 78 -216 113 -230 177 -17 69 -11 207 15 355 14 79 34
203 45 274 29 183 39 232 53 244 30 24 221 25 353 1z"/>
<path d="M8585 14740 c-38 -10 -97 -19 -130 -19 -65 -1 -244 -24 -370 -47 -44
-8 -131 -24 -194 -35 -63 -11 -128 -26 -145 -33 -18 -7 -46 -11 -63 -9 -68 10
-133 -63 -148 -167 -6 -46 15 -221 40 -320 38 -155 75 -479 75 -675 1 -155 33
-236 110 -275 53 -27 98 -25 205 9 49 15 123 38 163 50 40 13 133 47 205 78
73 30 211 84 307 120 229 85 406 171 462 226 51 49 74 110 58 152 -5 14 -10
68 -10 118 0 128 -81 690 -109 751 -31 71 -78 89 -251 92 -107 2 -150 -1 -205
-16z m363 -91 c11 -7 24 -21 31 -31 14 -22 36 -194 51 -398 6 -74 20 -196 31
-270 32 -218 34 -209 -81 -272 -73 -41 -699 -302 -920 -385 -130 -49 -151 -54
-207 -51 -35 2 -67 8 -73 14 -15 15 -28 99 -40 251 -6 76 -20 199 -30 273 -11
74 -27 207 -35 295 -8 88 -22 202 -31 253 -30 170 -3 200 207 228 60 8 205 30
322 49 356 58 720 78 775 44z"/>
<path d="M2360 14521 c-316 -8 -301 3 -344 -256 -15 -88 -32 -180 -37 -204
-28 -128 -89 -709 -89 -852 0 -83 3 -101 23 -129 13 -21 35 -37 54 -42 17 -5
495 -7 1062 -6 l1030 3 30 29 c50 48 61 99 71 331 13 285 44 576 76 715 21 91
27 142 28 244 l1 129 -28 21 c-28 21 -29 21 -835 22 -444 0 -913 -2 -1042 -5z"/>
<path d="M9820 13649 c-84 -14 -261 -57 -321 -78 -30 -10 -101 -40 -159 -66
-58 -26 -172 -74 -255 -106 -535 -207 -725 -307 -725 -382 0 -29 29 -72 71
-103 51 -40 139 -78 563 -249 214 -86 414 -169 445 -184 31 -16 101 -44 156
-62 l100 -34 689 -3 c775 -3 766 -4 826 65 29 33 32 41 26 80 -3 25 -15 57
-25 72 -13 18 -109 75 -283 169 -145 77 -275 146 -290 153 -21 9 -32 25 -45
66 -10 33 -13 57 -7 62 5 5 122 66 259 135 331 166 395 218 395 324 0 52 -26
83 -92 112 -53 23 -56 23 -568 26 -283 1 -558 5 -610 7 -52 3 -120 1 -150 -4z"/>
<path d="M1949 12855 c-77 -42 -76 -198 2 -745 17 -118 37 -258 44 -310 23
-161 46 -293 58 -329 16 -45 50 -69 116 -81 59 -11 1929 -12 2041 -1 l65 6 -1
105 c-1 105 -6 145 -69 515 -29 167 -36 241 -45 453 -5 139 -13 264 -16 277
-3 14 -34 47 -70 75 l-64 50 -1017 0 c-863 -1 -1022 -3 -1044 -15z"/>
<path d="M1290 12751 c-8 -5 -96 -34 -195 -64 -248 -75 -912 -344 -988 -401
-39 -28 -74 -91 -82 -146 -3 -25 1 -89 10 -145 8 -55 22 -143 30 -195 8 -52
15 -128 15 -168 0 -87 35 -328 55 -374 18 -44 64 -86 105 -98 18 -5 83 -12
144 -16 88 -5 136 -2 231 14 66 12 165 26 220 32 99 11 538 80 645 101 47 9
63 19 108 65 l52 54 0 100 c0 73 -10 151 -35 285 -19 101 -39 249 -45 327 -6
79 -13 160 -16 181 -3 20 -9 108 -13 195 -8 173 -17 204 -74 237 -33 20 -144
31 -167 16z m124 -120 c35 -35 44 -84 45 -236 2 -228 64 -702 113 -867 15 -52
4 -84 -44 -118 -74 -54 -268 -99 -538 -125 -36 -3 -110 -12 -165 -20 -55 -8
-205 -17 -333 -20 -264 -7 -273 -6 -292 64 -15 58 -38 232 -45 351 -4 58 -11
130 -16 160 -5 30 -11 116 -14 191 -5 164 -4 166 112 227 151 78 478 224 587
261 61 21 165 60 231 86 151 59 250 86 295 80 20 -3 46 -16 64 -34z"/>
<path d="M7745 12712 c-51 -24 -70 -47 -84 -98 -13 -50 -45 -331 -66 -594 -16
-195 -31 -331 -59 -510 -27 -181 -3 -212 191 -250 274 -53 433 -80 478 -80 28
0 70 -5 95 -11 25 -6 99 -17 165 -24 66 -8 145 -19 175 -26 70 -14 276 -7 310
10 101 53 139 187 160 560 6 101 17 215 25 253 8 38 15 87 15 108 0 41 -44
176 -65 198 -13 14 -415 190 -854 373 -241 101 -402 131 -486 91z m349 -153
c408 -138 807 -301 890 -364 52 -39 65 -77 65 -189 1 -95 -7 -165 -45 -416
-13 -85 -28 -189 -33 -232 -20 -148 -43 -164 -226 -155 -66 3 -142 13 -170 21
-27 9 -95 19 -150 22 -102 6 -552 58 -637 74 -88 17 -155 63 -177 123 -8 21
-7 47 4 100 7 40 19 106 24 147 6 41 26 183 46 315 27 185 35 272 35 380 0
283 20 293 374 174z"/>
<path d="M9755 12241 c-38 -16 -113 -91 -134 -134 -17 -35 -21 -62 -21 -145 0
-56 -7 -146 -14 -200 -8 -53 -20 -155 -26 -227 -6 -71 -20 -167 -31 -213 -10
-46 -19 -118 -19 -161 l0 -77 73 -72 72 -72 971 0 c924 0 975 1 1062 19 222
48 267 118 307 486 9 83 21 168 27 190 6 22 12 157 15 301 6 297 9 285 -77
303 -61 13 -2174 14 -2205 2z"/>
<path d="M2170 11193 c-29 -24 -31 -30 -26 -67 11 -63 84 -273 130 -371 24
-49 56 -126 71 -170 16 -44 65 -150 109 -235 44 -85 99 -194 123 -242 39 -80
46 -88 80 -97 21 -5 322 -12 668 -16 347 -4 783 -10 970 -14 318 -7 344 -6
405 12 73 21 106 46 115 88 7 30 -13 79 -141 344 -37 77 -100 227 -140 334
-65 173 -83 209 -161 327 l-88 134 -1042 0 -1041 0 -32 -27z"/>
<path d="M1547 10822 c-103 -70 -292 -251 -542 -517 -334 -357 -446 -495 -471
-583 -21 -71 -10 -126 50 -249 37 -76 89 -209 152 -388 21 -60 106 -149 151
-159 67 -15 221 62 523 262 319 211 494 348 658 515 l143 145 -7 38 c-3 22
-42 113 -84 204 -43 91 -101 226 -129 300 -146 390 -145 388 -215 432 -38 25
-63 33 -110 36 -57 4 -64 1 -119 -36z m187 -81 c29 -25 58 -92 126 -290 48
-139 80 -214 136 -315 81 -142 114 -221 114 -266 0 -35 -36 -79 -99 -122 -25
-18 -79 -63 -119 -100 -40 -37 -94 -82 -120 -100 -26 -17 -130 -93 -232 -168
-102 -75 -212 -154 -245 -175 -94 -59 -334 -175 -365 -175 -15 0 -39 9 -52 20
-56 43 -258 550 -258 646 0 25 23 58 123 175 68 79 171 194 228 254 58 61 132
144 166 185 70 86 158 173 254 251 36 30 100 85 142 122 96 86 150 102 201 58z"/>
<path d="M3000 9839 c-45 -6 -60 -13 -87 -42 -67 -73 -65 -152 5 -245 142
-189 470 -529 536 -557 30 -13 168 -15 979 -15 l944 0 71 52 72 51 0 64 0 63
-54 53 c-180 175 -303 316 -354 408 -41 71 -66 103 -102 130 l-49 36 -161 7
c-196 9 -1723 4 -1800 -5z"/>
<path d="M2385 9373 c-16 -9 -47 -31 -68 -49 -20 -19 -42 -34 -47 -34 -6 0
-30 -42 -54 -92 -24 -51 -104 -221 -178 -378 -74 -157 -158 -346 -188 -420
-29 -74 -98 -247 -153 -385 -124 -312 -130 -349 -71 -437 22 -31 110 -140 196
-241 119 -139 169 -190 206 -210 27 -15 55 -33 61 -41 21 -26 67 -29 113 -8
35 15 56 36 105 108 34 49 94 133 135 186 40 53 100 141 132 195 33 54 121
197 196 318 277 447 417 733 394 809 -9 31 -58 79 -154 154 -127 98 -143 115
-257 267 -132 176 -175 221 -238 251 -58 28 -88 29 -130 7z m123 -110 c19 -9
49 -37 66 -62 68 -99 228 -281 321 -366 174 -159 175 -160 175 -192 0 -39 -54
-148 -144 -292 -41 -66 -87 -143 -101 -172 -15 -29 -113 -192 -218 -363 -337
-550 -405 -646 -458 -646 -47 0 -100 44 -225 187 -166 188 -223 259 -235 291
-8 20 4 65 65 241 41 119 90 252 109 296 143 333 274 618 387 838 l132 257 45
0 c25 0 61 -8 81 -17z"/>
<path d="M7793 9339 c-38 -11 -82 -62 -159 -183 -63 -99 -92 -165 -160 -353
-38 -106 -46 -141 -47 -201 0 -78 12 -106 64 -144 28 -21 31 -21 417 -19 273
1 295 2 332 21 58 30 74 59 72 139 -2 108 -79 300 -211 522 -105 178 -205 249
-308 218z"/>
<path d="M14023 8841 c-133 -34 -123 -118 48 -422 59 -104 141 -286 163 -360
31 -107 107 -167 224 -175 156 -12 212 88 147 261 -14 38 -29 73 -34 79 -5 6
-41 85 -81 176 -143 325 -177 381 -255 416 -58 27 -159 38 -212 25z"/>
<path d="M10130 8831 c-25 -4 -97 -26 -160 -48 -543 -194 -718 -256 -740 -263
-14 -4 -232 -83 -485 -175 -523 -190 -704 -254 -1030 -364 -355 -121 -571
-211 -656 -274 -62 -45 -62 -47 -69 -657 -3 -305 -2 -570 1 -588 10 -45 40
-75 104 -106 70 -33 75 -34 590 -96 94 -11 240 -29 325 -40 152 -19 311 -38
660 -80 96 -12 243 -30 325 -42 83 -11 233 -24 335 -28 102 -4 208 -13 235
-18 28 -6 167 -20 310 -32 143 -11 307 -30 365 -41 101 -19 140 -20 1035 -17
690 3 939 7 965 16 48 16 100 71 111 118 4 22 9 164 9 318 l0 279 -87 94 -86
94 -288 -3 c-325 -3 -363 -11 -224 -46 47 -12 101 -28 120 -36 33 -14 35 -18
35 -62 0 -33 -12 -74 -41 -140 l-41 -94 -487 0 c-437 1 -489 3 -520 18 -30 16
-39 32 -100 187 l-67 170 -435 2 -434 2 -45 -40 c-50 -44 -52 -39 30 -89 40
-24 40 -24 40 -87 0 -49 -4 -65 -16 -70 -20 -7 -77 4 -259 51 -77 20 -396 99
-710 176 -313 77 -598 147 -631 156 -46 12 -71 25 -98 53 l-37 38 39 35 c55
50 127 97 372 246 118 71 261 158 317 193 202 127 312 195 553 341 l245 149
112 -12 113 -12 0 -363 0 -364 -50 -25 c-54 -27 -68 -53 -51 -97 7 -19 20 -29
43 -33 18 -3 239 -5 490 -3 446 3 457 3 485 24 61 45 62 57 62 619 l1 511 28
16 c25 15 48 16 207 8 99 -5 331 -10 516 -10 l337 0 6 -32 c11 -57 18 -717 9
-859 -9 -130 -10 -137 -40 -175 -17 -21 -34 -49 -37 -60 -11 -35 36 -44 240
-44 l183 0 100 88 100 87 0 720 c0 532 -3 729 -12 754 -8 22 -24 40 -47 52
-33 18 -80 19 -1080 18 -575 -1 -1065 -5 -1090 -8z m-5 -126 l40 -34 0 -710
c0 -390 -4 -713 -8 -717 -4 -4 -55 -14 -112 -21 -57 -6 -136 -22 -175 -34 -39
-12 -74 -19 -77 -15 -3 3 4 32 16 63 21 54 23 79 28 383 6 350 2 389 -49 482
-29 51 -62 62 -161 55 -111 -8 -176 -33 -309 -118 -62 -40 -174 -110 -248
-157 -74 -46 -191 -121 -260 -165 -69 -44 -206 -132 -305 -195 -99 -63 -205
-131 -235 -151 -30 -21 -104 -66 -164 -102 -124 -73 -197 -134 -217 -181 l-13
-32 78 -71 78 -71 371 -98 c205 -54 498 -132 652 -173 154 -42 354 -95 444
-118 l163 -43 74 25 74 25 15 51 c21 72 19 89 -21 168 -19 39 -34 73 -32 75 2
2 46 -6 98 -17 52 -11 144 -23 205 -27 l110 -7 6 -37 c3 -20 2 -104 -2 -185
-5 -81 -11 -211 -15 -288 -9 -189 -7 -185 -91 -185 -94 0 -254 15 -548 50
-137 16 -342 38 -455 50 -291 29 -550 58 -730 80 -85 10 -193 21 -240 25 -47
3 -209 21 -360 40 -151 18 -315 36 -363 40 -104 7 -209 37 -256 72 -62 47 -61
41 -61 595 0 299 4 517 10 537 26 92 129 146 601 315 206 73 487 174 624 224
138 50 477 172 755 272 278 99 573 206 655 237 152 57 342 121 360 122 6 0 28
-15 50 -34z"/>
<path d="M7840 7766 c-41 -13 -129 -42 -195 -66 -66 -23 -149 -49 -185 -57
-36 -9 -73 -22 -82 -31 -39 -33 -11 -138 46 -173 17 -11 62 -29 99 -40 126
-39 300 -12 378 58 48 44 99 147 106 216 5 47 2 56 -22 85 -32 38 -44 38 -145
8z"/>
<path d="M4165 8805 c-22 -8 -41 -15 -41 -15 -1 0 -7 -13 -14 -30 -17 -40 -7
-73 38 -122 76 -85 157 -121 385 -174 104 -24 114 -24 270 -14 322 20 467 67
514 166 16 32 15 38 -1 91 -10 31 -31 69 -46 85 l-28 28 -519 0 c-425 -1 -525
-3 -558 -15z"/>
<path d="M14997 8806 c-75 -27 -113 -83 -103 -153 7 -55 27 -93 88 -168 54
-68 157 -269 183 -360 59 -205 93 -353 105 -450 19 -152 51 -236 105 -271 39
-25 138 -15 206 22 l54 29 1 55 c2 125 -39 442 -70 550 -7 25 -24 83 -36 130
-51 188 -167 401 -291 534 -89 96 -147 115 -242 82z"/>
<path d="M13685 8730 c-50 -24 -65 -37 -141 -126 -136 -159 -216 -300 -253
-449 -11 -44 -30 -152 -41 -240 -12 -88 -25 -178 -30 -200 -5 -22 -10 -50 -10
-63 0 -29 164 -202 192 -202 36 0 76 30 97 72 15 32 22 72 27 148 9 157 29
265 68 378 41 118 56 150 85 176 16 15 21 16 24 5 29 -106 100 -297 149 -400
l61 -129 62 0 c61 0 62 0 94 44 19 25 53 59 77 76 52 37 75 77 76 129 0 28
-11 54 -50 112 -27 40 -77 139 -110 219 -71 173 -159 357 -201 423 -30 46 -31
47 -83 47 -31 0 -69 -8 -93 -20z m168 -273 c106 -204 237 -481 237 -503 0 -16
-96 -134 -109 -134 -10 0 -87 216 -116 328 -38 143 -79 206 -142 218 -71 13
-106 -20 -202 -198 -50 -92 -78 -228 -90 -428 -4 -71 -13 -136 -21 -150 l-13
-24 -34 39 c-28 32 -33 46 -29 70 3 16 13 97 21 178 12 124 21 169 56 270 48
140 64 175 127 272 78 122 197 245 222 230 5 -3 46 -78 93 -168z"/>
<path d="M6305 8626 c-27 -8 -57 -24 -67 -36 -18 -22 -38 -81 -38 -113 0 -37
52 -223 101 -361 76 -211 128 -313 188 -369 47 -44 53 -47 106 -47 31 0 66 5
78 12 41 22 447 442 467 484 29 59 26 103 -12 160 -28 42 -48 57 -142 106
-238 123 -554 199 -681 164z"/>
<path d="M14662 8620 c-39 -24 -72 -75 -72 -113 0 -19 13 -44 36 -70 46 -54
169 -303 214 -432 30 -87 34 -113 35 -200 l0 -100 -25 2 c-14 2 -95 5 -180 9
-169 7 -198 1 -226 -41 -16 -24 -16 -31 -1 -105 14 -70 14 -85 2 -127 -24 -78
-20 -117 15 -147 87 -73 251 -31 584 150 l146 79 0 148 c0 132 -3 161 -31 270
-49 198 -112 339 -243 550 -36 59 -75 109 -96 123 -44 30 -112 32 -158 4z
m163 -195 c29 -44 67 -108 84 -142 45 -91 161 -447 161 -495 0 -23 9 -75 21
-115 l20 -73 -51 -60 -52 -59 -96 -21 c-54 -11 -154 -34 -223 -50 -70 -17
-129 -30 -131 -30 -11 0 -17 92 -11 154 l6 66 189 0 190 0 33 33 c24 24 35 46
40 80 19 123 -70 396 -214 657 -64 117 -74 138 -66 151 11 17 48 -18 100 -96z"/>
<path d="M3515 8413 c-72 -18 -114 -130 -160 -435 -23 -151 -72 -509 -84 -613
-28 -236 -76 -1000 -67 -1051 11 -55 75 -113 176 -156 91 -40 310 -118 330
-118 7 0 39 15 73 32 69 37 111 93 122 161 9 60 48 188 112 367 76 216 214
779 283 1160 65 355 38 410 -235 485 -187 52 -279 83 -375 125 -87 39 -139 51
-175 43z m157 -144 c242 -93 382 -140 443 -150 127 -20 141 -37 119 -150 -8
-41 -23 -130 -34 -199 -48 -299 -145 -719 -231 -1000 -23 -74 -52 -177 -65
-228 -31 -122 -118 -343 -149 -376 -36 -39 -76 -34 -239 32 -165 67 -193 83
-206 118 -13 33 -13 148 0 249 5 44 14 168 19 276 6 108 15 236 21 285 5 49
17 150 25 224 31 282 46 399 65 510 11 63 29 178 40 255 19 140 35 205 50 205
5 0 68 -23 142 -51z"/>
<path d="M5263 8170 c-141 -6 -154 -8 -191 -33 -43 -28 -83 -98 -102 -177 -23
-99 -73 -325 -110 -500 -21 -102 -48 -225 -59 -275 -11 -49 -40 -187 -65 -305
-26 -118 -60 -274 -76 -347 -17 -72 -30 -140 -30 -150 0 -10 -16 -80 -35 -156
-41 -162 -45 -245 -15 -294 41 -68 -12 -64 823 -61 l756 3 34 34 c24 22 61 89
117 209 127 272 129 269 -281 461 -145 68 -352 168 -459 222 -176 88 -197 101
-213 134 -34 71 -19 117 71 223 57 67 110 105 252 182 118 64 439 272 496 323
45 39 68 103 60 164 -10 67 -63 226 -89 264 -46 68 -47 68 -322 79 -267 10
-326 10 -562 0z"/>
<path d="M6252 7465 c-92 -26 -201 -73 -362 -157 -242 -126 -279 -158 -288
-247 -9 -93 65 -195 182 -250 474 -224 449 -215 568 -215 73 -1 91 2 115 20
48 36 52 62 52 414 l1 326 -59 58 c-54 53 -64 59 -108 62 -26 2 -72 -3 -101
-11z"/>
<path d="M13957 7156 c-38 -36 -52 -69 -142 -340 -97 -294 -109 -343 -103
-422 9 -115 72 -194 210 -262 154 -76 309 -98 466 -66 194 39 441 194 503 315
23 46 25 119 4 159 -22 42 4 41 29 -1 55 -94 106 -123 238 -138 104 -12 159
-2 206 37 44 36 46 66 11 136 -42 84 -66 105 -149 126 -94 24 -247 27 -290 5
-38 -19 -60 -52 -60 -88 0 -26 -3 -28 -22 -22 -80 25 -124 10 -239 -83 -75
-61 -161 -106 -231 -121 -32 -8 -200 12 -295 34 -31 7 -30 48 1 123 13 31 40
109 61 172 20 63 52 157 71 209 34 93 40 125 28 156 -13 32 -171 95 -239 95
-20 0 -42 -9 -58 -24z m158 -110 c30 -21 13 -91 -64 -267 -90 -203 -96 -229
-92 -371 2 -88 70 -131 250 -158 127 -20 172 -6 375 114 98 58 182 106 187
106 19 0 7 -30 -35 -88 -120 -162 -342 -231 -621 -192 -132 19 -118 11 -253
151 -47 50 -52 58 -43 80 6 13 53 156 106 318 53 162 101 301 107 308 14 17
59 17 83 -1z"/>
<path d="M6633 6298 c-122 -90 -247 -374 -289 -651 -23 -157 0 -243 74 -274
57 -24 137 -12 342 51 315 97 470 188 499 292 24 85 5 138 -66 190 -21 16
-123 110 -226 209 -104 99 -199 185 -210 192 -35 20 -90 15 -124 -9z"/>
<path d="M7940 5680 c-324 -5 -330 -6 -369 -56 -16 -21 -21 -41 -21 -91 0 -76
24 -154 88 -278 25 -49 61 -121 79 -160 59 -123 68 -135 174 -231 l104 -93 55
0 55 0 60 95 c33 52 75 118 92 146 33 51 137 290 168 383 9 27 16 80 17 117 0
57 -4 75 -25 107 -30 45 -81 72 -134 69 -21 -1 -175 -5 -343 -8z"/>
<path d="M800 4040 c-335 -5 -357 -6 -395 -26 -26 -13 -49 -37 -65 -65 l-25
-44 -3 -885 c-3 -941 -1 -1001 43 -1156 36 -124 121 -297 183 -371 186 -222
433 -349 727 -373 190 -16 730 -22 1082 -13 300 8 323 9 343 28 52 46 50 -14
50 1437 0 1268 -1 1355 -18 1387 -9 19 -30 44 -45 55 -27 20 -45 21 -380 27
-194 3 -399 3 -457 -1 -167 -12 -196 -36 -211 -178 -5 -48 -9 -595 -9 -1215 0
-986 -2 -1132 -15 -1157 -31 -59 -89 -63 -141 -9 l-29 30 -2 1142 c-1 628 -4
1170 -6 1203 -6 82 -37 138 -91 163 -54 25 -114 27 -536 21z"/>
<path d="M3460 4040 c-461 -7 -474 -9 -485 -73 -19 -121 -23 -472 -19 -2071 3
-1745 3 -1749 24 -1791 28 -58 65 -73 205 -86 158 -15 688 -7 735 11 50 18 99
58 112 88 7 18 10 169 9 452 -2 391 0 428 16 460 32 62 62 71 261 81 231 11
344 34 488 99 227 102 445 351 523 594 55 172 58 341 21 1131 -12 250 -20 313
-56 428 -79 250 -217 427 -426 542 -107 58 -185 84 -330 110 -166 29 -451 36
-1078 25z m760 -416 l50 -77 0 -991 0 -991 -54 -60 -54 -60 -61 60 -61 59 0
1021 c0 980 1 1022 19 1062 16 35 25 42 53 46 18 2 39 5 46 5 7 1 35 -32 62
-74z"/>
<path d="M5705 4038 c-27 -4 -60 -15 -74 -26 -57 -42 -54 39 -52 -1432 l2
-1355 28 -39 c56 -79 42 -77 521 -74 484 3 468 1 523 90 28 44 28 49 38 269 6
136 9 648 6 1304 -5 1150 -6 1153 -53 1207 -10 11 -39 30 -64 41 -43 20 -64
21 -436 21 -215 1 -413 -2 -439 -6z"/>
<path d="M9230 4039 c-259 -15 -442 -73 -628 -202 -117 -81 -245 -233 -320
-382 -38 -76 -80 -230 -91 -333 -14 -132 -14 -936 0 -1073 23 -228 86 -383
229 -563 135 -170 305 -274 560 -343 105 -28 105 -28 420 -28 295 0 322 2 420
24 205 47 326 99 438 192 147 122 252 286 307 479 36 128 45 220 45 450 0 213
-6 243 -61 283 -39 28 -275 39 -639 29 -341 -8 -346 -10 -390 -97 l-25 -50 0
-435 c0 -239 -4 -451 -8 -470 -17 -72 -15 -70 -68 -70 -64 0 -87 12 -107 58
-15 33 -17 136 -20 1020 -3 881 -2 991 13 1056 19 90 39 111 98 108 84 -6 77
17 77 -270 1 -141 5 -314 9 -383 10 -162 28 -199 115 -244 l60 -30 405 0 c395
0 407 1 453 22 25 11 54 32 63 46 23 36 30 148 16 279 -20 183 -46 279 -112
417 -52 106 -71 134 -132 195 -79 79 -191 162 -277 206 -172 87 -502 130 -850
109z"/>
<path d="M11830 4038 c-289 -16 -532 -113 -683 -272 -52 -55 -140 -173 -186
-249 -86 -142 -141 -403 -141 -671 0 -93 14 -248 26 -287 12 -40 64 -44 641
-44 543 0 552 0 580 -21 15 -11 37 -37 48 -57 l20 -37 -20 -37 c-11 -21 -31
-43 -45 -50 -19 -10 -139 -13 -505 -13 -423 0 -618 -8 -678 -26 -32 -10 -48
-62 -57 -182 -13 -159 -12 -706 0 -815 13 -112 29 -143 78 -156 60 -15 684
-22 1097 -12 360 9 385 10 484 35 244 62 428 191 568 401 76 113 154 279 163
347 5 35 13 87 19 117 14 71 14 614 0 680 -15 69 -46 112 -101 139 -42 21 -65
24 -215 29 -92 3 -289 1 -438 -4 -148 -6 -313 -7 -366 -4 -85 6 -101 10 -133
34 -59 46 -60 103 -3 135 29 15 84 17 577 22 541 5 545 5 591 28 81 39 88 70
100 412 12 373 0 449 -87 531 l-26 24 -596 5 c-328 3 -649 2 -712 -2z"/>
<path d="M6984 4021 c-23 -10 -50 -32 -61 -47 -48 -69 -47 -27 -45 -1407 1
-872 5 -1311 12 -1337 15 -56 54 -98 103 -111 28 -8 176 -11 454 -12 484 0
468 -3 518 98 l30 60 0 1315 0 1315 -25 50 c-19 38 -35 55 -70 73 -44 22 -49
22 -460 22 -383 0 -418 -2 -456 -19z"/>
<path d="M14255 4033 c-194 -25 -336 -79 -480 -183 -176 -127 -283 -304 -321
-530 l-17 -105 94 -88 94 -88 395 3 c428 3 424 3 477 60 50 53 57 89 60 308 4
229 5 242 33 270 34 34 64 25 114 -32 l46 -53 0 -311 0 -312 -97 -62 -97 -63
-120 5 c-209 9 -346 -16 -497 -92 -224 -111 -339 -232 -423 -440 -49 -122 -68
-214 -68 -335 -1 -108 9 -171 49 -310 32 -115 77 -189 178 -294 118 -123 221
-188 379 -239 l81 -26 795 -3 795 -3 68 86 67 87 0 911 c0 861 -1 915 -19 981
-102 375 -102 375 -180 470 -56 68 -172 167 -259 222 -107 67 -241 119 -384
148 -119 24 -140 25 -429 24 -167 -1 -317 -4 -334 -6z m447 -1575 l46 -43 7
-320 c9 -361 2 -540 -22 -602 l-16 -43 -63 0 c-100 0 -94 -31 -94 493 0 486 1
492 55 535 15 12 31 22 34 22 4 0 27 -19 53 -42z"/>
</g>
</svg>
